<svg width="57" height="79" viewBox="0 0 57 79" fill="none" xmlns="http://www.w3.org/2000/svg">
<path d="M28.5074 79C26.5796 79 24.9907 77.4053 24.9907 75.4382L24.9907 3.7591C24.9907 1.79199 26.5796 0.197323 28.5074 0.197323C30.4352 0.197323 32.0241 1.79199 32.0241 3.7591L32.0241 75.4382C32.0241 77.4053 30.4352 79 28.5074 79Z" fill="white"/>
<path d="M55.97 30.7495C54.5966 32.1174 52.37 32.1174 50.9967 30.7495L26.1137 5.97977C24.7404 4.61182 24.7404 2.39392 26.1137 1.02597C27.4871 -0.341986 29.7137 -0.341987 31.0871 1.02597L55.97 25.7957C57.3433 27.1636 57.3433 29.3815 55.97 30.7495Z" fill="white"/>
<path d="M1.03001 30.7495C-0.343339 29.3815 -0.343339 27.1636 1.03001 25.7957L25.9283 1.02667C27.3016 -0.341285 29.5283 -0.341285 30.9016 1.02667C32.275 2.39462 32.275 4.61252 30.9016 5.98047L6.00334 30.7495C4.62999 32.1174 2.40335 32.1174 1.03001 30.7495Z" fill="white"/>
</svg>
