<?xml version="1.0" standalone="no"?>
<!DOCTYPE svg PUBLIC "-//W3C//DTD SVG 20010904//EN"
 "http://www.w3.org/TR/2001/REC-SVG-20010904/DTD/svg10.dtd">
<svg version="1.0" xmlns="http://www.w3.org/2000/svg"
 width="512.000000pt" height="512.000000pt" viewBox="0 0 512.000000 512.000000"
 preserveAspectRatio="xMidYMid meet">

<g transform="translate(0.000000,512.000000) scale(0.100000,-0.100000)"
fill="#000000" stroke="none">
<path d="M4180 4539 c-68 -30 -3562 -3522 -3596 -3594 -64 -135 -2 -302 136
-364 61 -28 159 -28 220 0 68 30 3562 3522 3596 3594 64 135 2 302 -136 364
-61 28 -159 28 -220 0z"/>
<path d="M2255 4216 c-819 -100 -1527 -518 -1991 -1176 -117 -165 -264 -434
-264 -481 0 -53 155 -331 283 -508 34 -47 101 -131 148 -186 122 -142 347
-355 375 -355 5 0 157 148 338 329 l329 329 -21 74 c-31 106 -42 188 -42 318
0 140 11 214 51 345 72 233 215 433 415 582 144 106 301 173 489 209 123 23
355 15 470 -17 44 -11 89 -23 100 -26 15 -3 72 48 245 221 123 124 222 227
220 229 -8 6 -199 56 -280 73 -233 47 -644 66 -865 40z"/>
<path d="M3976 3281 l-329 -329 21 -74 c31 -106 42 -188 42 -319 0 -314 -116
-595 -337 -815 -137 -136 -289 -228 -468 -283 -131 -40 -205 -51 -345 -51
-130 0 -212 11 -318 42 l-73 21 -225 -224 c-123 -123 -224 -226 -224 -229 0
-7 182 -56 300 -79 331 -67 730 -67 1076 -1 707 135 1340 545 1761 1140 113
161 263 433 263 480 0 82 -232 460 -418 680 -118 139 -360 370 -389 370 -4 0
-156 -148 -337 -329z"/>
<path d="M2449 3289 c-285 -42 -530 -263 -603 -546 -20 -75 -32 -213 -20 -213
11 0 764 752 764 763 0 9 -67 7 -141 -4z"/>
<path d="M2907 2212 c-207 -207 -377 -381 -377 -386 0 -14 148 1 230 24 245
69 441 265 510 510 23 83 38 230 24 230 -5 0 -179 -170 -387 -378z"/>
</g>
</svg>
